<?xml version="1.0"?>
<svg xmlns="http://www.w3.org/2000/svg" xmlns:xlink="http://www.w3.org/1999/xlink" xmlns:svgjs="http://svgjs.com/svgjs" version="1.1" width="512" height="512" x="0" y="0" viewBox="0 0 512 512" style="enable-background:new 0 0 512 512" xml:space="preserve" class=""><g><path xmlns="http://www.w3.org/2000/svg" d="m488 488h-328a56 56 0 0 1 -56-56v-344a56 56 0 0 0 -56-56h328a56 56 0 0 1 56 56v344a56 56 0 0 0 56 56z" fill="#e9eef2" data-original="#e9eef2" class=""/><path xmlns="http://www.w3.org/2000/svg" d="m296 488h-240v-144l120-80 120 80z" fill="#dadcde" data-original="#dadcde"/><g xmlns="http://www.w3.org/2000/svg" fill="#3397e8"><path d="m24 344 16 24 144-96 144 96 16-24-160-112z" fill="#ff6138" data-original="#3397e8" class=""/><path d="m176 344h16a24 24 0 0 1 24 24v120a0 0 0 0 1 0 0h-64a0 0 0 0 1 0 0v-120a24 24 0 0 1 24-24z" fill="#ff6138" data-original="#3397e8" class=""/><path d="m88 376h32v32h-32z" fill="#ff6138" data-original="#3397e8" class=""/></g><path xmlns="http://www.w3.org/2000/svg" d="m144 72h248v32h-248z" fill="#d0d2d4" data-original="#d0d2d4"/><circle xmlns="http://www.w3.org/2000/svg" cx="344" cy="400" fill="#a1e379" r="80" data-original="#ffd33a" class=""/><path xmlns="http://www.w3.org/2000/svg" d="m488 480a48.055 48.055 0 0 1 -48-48v-344a64.072 64.072 0 0 0 -64-64h-328a8 8 0 0 0 0 16 48.055 48.055 0 0 1 48 48v195.835l-76.588 53.611a8 8 0 0 0 -2.068 10.992l16 24a8 8 0 0 0 11.094 2.218l3.562-2.375v115.719a8 8 0 0 0 8 8h432a8 8 0 0 0 0-16zm-397.711-440h285.711a48.055 48.055 0 0 1 48 48v259a95.932 95.932 0 0 0 -114.194-36.7l-121.218-84.854a8 8 0 0 0 -9.176 0l-67.412 47.189v-184.635a63.872 63.872 0 0 0 -21.711-48zm-48.07 316.906-7.225-10.837 149.006-104.304 109.482 76.635a96.559 96.559 0 0 0 -12.109 8.9l-92.935-61.956a8 8 0 0 0 -8.876 0zm165.781 123.094h-48v-112a16.019 16.019 0 0 1 16-16h16a16.019 16.019 0 0 1 16 16zm16 0v-112a32.036 32.036 0 0 0 -32-32h-16a32.036 32.036 0 0 0 -32 32v112h-80v-118.385l120-80 85.98 57.319a95.881 95.881 0 0 0 21.02 141.066zm40-80a80 80 0 1 1 80 80 80.091 80.091 0 0 1 -80-80zm133 80a96.738 96.738 0 0 0 29.363-30.738 64.136 64.136 0 0 0 19.348 30.738z" fill="#404040" data-original="#000000" class=""/><path xmlns="http://www.w3.org/2000/svg" d="m120 368h-32a8 8 0 0 0 -8 8v32a8 8 0 0 0 8 8h32a8 8 0 0 0 8-8v-32a8 8 0 0 0 -8-8zm-8 32h-16v-16h16z" fill="#404040" data-original="#000000" class=""/><path xmlns="http://www.w3.org/2000/svg" d="m344 376h16a8 8 0 0 0 0-16h-8v-8a8 8 0 0 0 -16 0v9.376a24 24 0 0 0 8 46.624 8 8 0 0 1 0 16h-16a8 8 0 0 0 0 16h8v8a8 8 0 0 0 16 0v-9.376a24 24 0 0 0 -8-46.624 8 8 0 0 1 0-16z" fill="#404040" data-original="#000000" class=""/><path xmlns="http://www.w3.org/2000/svg" d="m144 112h248a8 8 0 0 0 8-8v-32a8 8 0 0 0 -8-8h-248a8 8 0 0 0 -8 8v32a8 8 0 0 0 8 8zm8-32h232v16h-232z" fill="#404040" data-original="#000000" class=""/><path xmlns="http://www.w3.org/2000/svg" d="m384 128h-232a8 8 0 0 0 0 16h232a8 8 0 0 0 0-16z" fill="#404040" data-original="#000000" class=""/><path xmlns="http://www.w3.org/2000/svg" d="m384 160h-232a8 8 0 0 0 0 16h232a8 8 0 0 0 0-16z" fill="#404040" data-original="#000000" class=""/><path xmlns="http://www.w3.org/2000/svg" d="m384 192h-232a8 8 0 0 0 0 16h232a8 8 0 0 0 0-16z" fill="#404040" data-original="#000000" class=""/><path xmlns="http://www.w3.org/2000/svg" d="m384 224h-112a8 8 0 0 0 0 16h112a8 8 0 0 0 0-16z" fill="#404040" data-original="#000000" class=""/></g></svg>
